{"title":"Before Midnight 2013 HDRiP XViD UNiQUE","uid":8681400,"size":1535524953,"categoryP":"video","categoryS":"movies","magnet":"?xt=urn:btih:0651c955080fdde90869d5ed4803f7137031775e&amp;dn=Before+Midnight+2013+HDRiP+XViD+UNiQUE&amp;tr=udp%3A%2F%2Ftracker.openbittorrent.com%3A80&amp;tr=udp%3A%2F%2Fopen.demonii.com%3A1337&amp;tr=udp%3A%2F%2Ftracker.coppersurfer.tk%3A6969&amp;tr=udp%3A%2F%2Fexodus.desync.com%3A6969","seeders":6,"leechers":1,"uploader":"srkfan","files":3,"time":1373712074,"description":" &lt;a href=&quot;http://movie-covers.com/covers/Before-Midnight-(2013)-R0-CUSTOM.jpg&quot; rel=&quot;nofollow&quot; target=&quot;_NEW&quot;&gt;http://movie-covers.com/covers/Before-Midnight-(2013)-R0-CUSTOM.jpg&lt;/a&gt;\n\n\nSource Used         Before Midnight 2013 KORSUB 720p HDRip x264 AAC-JYK              - Thanks\n\n &lt;a href=&quot;\nhttp://www.imdb.com/title/tt2209418&quot; rel=&quot;nofollow&quot; target=&quot;_NEW&quot;&gt;\nhttp://www.imdb.com/title/tt2209418&lt;/a&gt;\n\n\nWe meet Jesse and Celine nine years on in Greece. Almost two decades have passed since their first meeting on that train bound for Vienna.\n\nFormat                                   : AVI\nFormat/Info                              : Audio Video Interleave\nFile size                                : 1.42 GiB\nDuration                                 : 1h 48mn\nOverall bit rate                         : 1 867 Kbps\nWriting application                      : VirtualDubMod 1.5.10.2 (build 2540/release)\nWriting library                          : VirtualDubMod build 2540/release\n\nVideo\nID                                       : 0\nFormat                                   : MPEG-4 Visual\nFormat profile                           : Advanced Simple@L5\nFormat settings, BVOP                    : 2\nFormat settings, QPel                    : No\nFormat settings, GMC                     : No warppoints\nFormat settings, Matrix                  : Default (H.263)\nMuxing mode                              : Packed bitstream\nCodec ID                                 : XVID\nCodec ID/Hint                            : XviD\nDuration                                 : 1h 48mn\nBit rate                                 : 1 663 Kbps\nWidth                                    : 720 pixels\nHeight                                   : 304 pixels\nDisplay aspect ratio                     : 2.35:1\nFrame rate                               : 29.970 fps\nColor space                              : YUV\nChroma subsampling                       : 4:2:0\nBit depth                                : 8 bits\nScan type                                : Progressive\nCompression mode                         : Lossy\nBits/(Pixel*Frame)                       : 0.254\nStream size                              : 1.26 GiB (89%)\nWriting library                          : XviD 64\n\nAudio\nID                                       : 1\nFormat                                   : AC-3\nFormat/Info                              : Audio Coding 3\nMode extension                           : CM (complete main)\nFormat settings, Endianness              : Big\nCodec ID                                 : 2000\nDuration                                 : 1h 48mn\nBit rate mode                            : Constant\nBit rate                                 : 192 Kbps\nChannel(s)                               : 2 channels\nChannel positions                        : Front: L R\nSampling rate                            : 44.1 KHz\nBit depth                                : 16 bits\nCompression mode                         : Lossy\nDelay relative to video                  : 13ms\nStream size                              : 149 MiB (10%)\nAlignment                                : Split accross interleaves\nInterleave, duration                     : 33 ms (1.00 video frame)\nInterleave, preload duration             : 500 ms\n &lt;a href=&quot;\nhttp://img6.imageshack.us/img6/3215/gzm2.png&quot; rel=&quot;nofollow&quot; target=&quot;_NEW&quot;&gt;\nhttp://img6.imageshack.us/img6/3215/gzm2.png&lt;/a&gt; &lt;a href=&quot;\nhttp://img835.imageshack.us/img835/632/e13t.png&quot; rel=&quot;nofollow&quot; target=&quot;_NEW&quot;&gt;\nhttp://img835.imageshack.us/img835/632/e13t.png&lt;/a&gt; &lt;a href=&quot;\nhttp://img594.imageshack.us/img594/9827/evbw.png&quot; rel=&quot;nofollow&quot; target=&quot;_NEW&quot;&gt;\nhttp://img594.imageshack.us/img594/9827/evbw.png&lt;/a&gt;","torrent":{"xt":"urn:btih:0651c955080fdde90869d5ed4803f7137031775e","amp;dn":"Before+Midnight+2013+HDRiP+XViD+UNiQUE","amp;tr":["udp%3A%2F%2Ftracker.openbittorrent.com%3A80","udp%3A%2F%2Fopen.demonii.com%3A1337","udp%3A%2F%2Ftracker.coppersurfer.tk%3A6969","udp%3A%2F%2Fexodus.desync.com%3A6969"],"infoHash":"0651c955080fdde90869d5ed4803f7137031775e","infoHashBuffer":{"type":"Buffer","data":[6,81,201,85,8,15,221,233,8,105,213,237,72,3,247,19,112,49,119,94]},"announce":[],"urlList":[]}}